# xmcd CD database file
#
# Track frame offsets:
#	150
#	22210
#	43618
#	65154
#	81508
#	99774
#	123720
#	155891
#	173966
#	198862
#	226026
#
# Disc length: 3235 seconds
#
# Revision: 0
# Processed by: cddbd v1.5.2PL0 Copyright (c) Steve Scherf et al.
# Submitted via: CDex 1.70beta2
#
DISCID=960ca10b
DTITLE=Christophe Wallemme - Namaste
DYEAR=2006
DGENRE=Jazz
TTITLE0=Holi
TTITLE1=Mon Jules
TTITLE2=Namaste
TTITLE3=Le temps des moussons
TTITLE4=Tandoori groove
TTITLE5=Sweet Aum
TTITLE6=Reflection
TTITLE7=Stone cutter
TTITLE8=Trouble time
TTITLE9=Diwali
TTITLE10=La Javanaise
EXTD=YEAR: 2006
EXTT0=
EXTT1=
EXTT2=
EXTT3=
EXTT4=
EXTT5=
EXTT6=
EXTT7=
EXTT8=
EXTT9=
EXTT10=
PLAYORDER=
